<?xml version="1.0" standalone="no"?>
<!DOCTYPE svg PUBLIC "-//W3C//DTD SVG 20010904//EN"
 "http://www.w3.org/TR/2001/REC-SVG-20010904/DTD/svg10.dtd">
<svg version="1.0" xmlns="http://www.w3.org/2000/svg"
 width="421.000000pt" height="421.000000pt" viewBox="0 0 421.000000 421.000000"
 preserveAspectRatio="xMidYMid meet">
<metadata>
Created by potrace 1.14, written by Peter Selinger 2001-2017
</metadata>
<g transform="translate(0.000000,421.000000) scale(0.100000,-0.100000)"
fill="#000000" stroke="none">
<path d="M1665 3591 c-199 -57 -426 -227 -565 -422 -101 -143 -152 -264 -230
-549 -35 -128 -104 -313 -174 -465 -65 -144 -87 -236 -87 -371 0 -130 9 -175
58 -304 49 -129 87 -203 127 -248 18 -20 55 -74 81 -120 26 -46 49 -82 50 -80
1 2 -3 109 -11 238 -7 129 -13 278 -14 331 0 90 1 97 26 120 24 22 35 24 152
29 l127 5 6 30 c4 17 7 55 8 85 1 30 6 73 10 95 l8 40 12 -45 c25 -87 56 -134
122 -183 29 -22 46 -27 84 -25 42 1 46 3 29 15 -14 10 -19 10 -26 0 -5 -8 -8
-7 -8 6 0 9 -5 17 -10 17 -18 0 -81 64 -108 108 -26 46 -46 122 -31 122 5 0 9
-4 9 -10 0 -5 7 -10 15 -10 8 0 15 -4 15 -10 0 -21 27 -9 44 21 24 40 140 159
155 159 8 0 9 -5 1 -19 -13 -25 -13 -80 1 -119 8 -24 20 -34 47 -42 72 -20
205 -7 224 22 5 7 11 25 15 41 3 15 9 27 12 27 13 0 61 -56 61 -71 0 -30 29
43 33 84 3 37 4 36 5 -14 4 -129 -75 -257 -191 -310 l-42 -19 57 0 c56 0 59 1
110 53 60 59 103 139 118 218 18 95 95 133 180 88 42 -23 46 -28 61 -89 25
-103 55 -161 114 -217 51 -50 58 -53 105 -53 28 0 50 2 50 5 0 2 -20 13 -44
24 -144 66 -219 288 -146 430 31 62 102 128 169 159 97 45 223 36 305 -22 33
-24 87 -76 79 -76 -3 0 2 -10 13 -22 10 -13 3 -8 -17 10 -30 28 -38 31 -48 19
-6 -8 -9 -22 -5 -30 14 -37 -9 -36 -53 2 -153 136 -350 111 -435 -54 -27 -52
-36 -156 -15 -173 12 -10 19 -6 41 23 28 37 46 45 46 20 0 -34 24 -65 59 -75
82 -23 199 -6 226 33 17 25 20 99 4 128 -10 19 -9 20 18 5 34 -18 118 -98 154
-146 l27 -35 19 22 c25 28 34 21 23 -18 -5 -16 -10 -33 -11 -37 -9 -36 -28
-65 -74 -109 -29 -28 -50 -55 -47 -59 4 -4 2 -4 -4 -1 -7 4 -26 1 -44 -7 l-33
-13 56 -2 c50 -1 61 3 94 32 21 17 44 39 51 47 26 31 60 107 72 163 7 31 14
56 16 55 1 -2 8 -49 14 -106 9 -74 19 -116 36 -147 l25 -43 93 -4 c99 -3 128
-16 146 -63 4 -11 2 -128 -6 -260 -7 -132 -13 -249 -13 -260 0 -25 133 113
189 198 151 225 118 522 -110 977 -32 64 -90 210 -130 325 -39 116 -94 257
-121 314 -122 257 -288 440 -492 542 -158 80 -287 89 -426 30 -40 -17 -80 -31
-88 -31 -8 0 -40 16 -71 35 -32 19 -77 39 -102 44 -69 16 -207 12 -275 -8z
m595 -593 c121 -38 225 -79 320 -125 87 -42 203 -153 258 -246 64 -107 131
-305 145 -427 l5 -45 -27 60 c-45 97 -164 202 -283 247 -61 23 -188 23 -278 0
-53 -14 -66 -21 -68 -39 -2 -16 4 -26 22 -34 l26 -12 -36 -39 c-47 -53 -91
-123 -99 -159 -8 -36 -19 -43 -47 -28 -32 17 -127 19 -167 3 -19 -8 -35 -13
-36 -12 0 2 -16 34 -34 71 -18 38 -53 90 -77 115 -24 25 -43 46 -41 47 1 1 12
8 25 14 16 8 22 20 20 34 -2 18 -15 25 -68 39 -83 21 -214 23 -270 3 -91 -32
-212 -121 -264 -195 l-17 -25 6 40 c33 204 115 377 230 487 75 72 231 145 414
194 30 8 61 20 68 26 25 20 118 46 148 41 17 -3 73 -19 125 -35z m-517 -626
c76 -35 169 -140 182 -207 4 -24 2 -22 -10 9 -22 56 -57 99 -111 135 -40 26
-57 31 -109 31 -65 0 -121 -14 -143 -37 -7 -7 -18 -13 -23 -13 -5 0 -30 -20
-56 -45 -48 -47 -69 -46 -58 3 8 33 -21 40 -51 11 -33 -31 -55 -72 -70 -134
-7 -27 -13 -41 -13 -29 -2 40 30 124 57 149 15 14 24 25 20 25 -15 0 69 73
104 91 84 43 200 47 281 11z m1172 -183 c9 -17 15 -34 13 -39 -2 -5 -11 9 -20
30 -20 47 -15 53 7 9z m-1265 -24 c10 -12 10 -18 0 -30 -7 -8 -18 -15 -25 -15
-19 0 -36 25 -29 44 8 20 38 21 54 1z m856 -30 c-6 -17 -42 -20 -51 -5 -3 5 7
16 22 24 29 15 40 7 29 -19z m431 -42 c-3 -10 -5 -4 -5 12 0 17 2 24 5 18 2
-7 2 -21 0 -30z"/>
<path d="M3275 777 c-2 -7 -9 -106 -15 -222 -11 -222 -18 -249 -62 -258 -13
-2 34 -5 105 -6 118 -1 127 0 127 18 0 31 -39 148 -92 279 -47 114 -49 124
-34 141 9 10 16 25 16 33 0 19 -40 32 -45 15z"/>
<path d="M911 695 c-79 -166 -125 -285 -145 -377 l-6 -27 146 -3 c80 -2 148 0
151 5 2 4 -7 7 -20 7 -50 0 -71 30 -78 116 -4 44 -8 117 -9 164 -1 47 -4 103
-8 125 l-7 40 -24 -50z"/>
<path d="M1270 296 c0 -2 9 -6 20 -9 11 -3 20 -1 20 4 0 5 -9 9 -20 9 -11 0
-20 -2 -20 -4z"/>
</g>
</svg>
